<svg width="1440" height="88" viewBox="0 0 1440 88" fill="none" xmlns="http://www.w3.org/2000/svg">
<mask id="path-1-inside-1_42_765" fill="white">
<path d="M0 0H1440V88H0V0Z"/>
</mask>
<path d="M0 0H1440V88H0V0Z" fill="white"/>
<path d="M0 0V1H1440V0V-1H0V0Z" fill="#D9D9D9" mask="url(#path-1-inside-1_42_765)"/>
<path d="M52.2737 41.1635L61.2023 31H59.0872L51.3313 39.823L45.1412 31H38L47.3626 44.3433L38 55H40.115L48.3002 45.6806L54.8388 55H61.98M40.8784 32.5619H44.1277L59.0856 53.5148H55.8355" fill="#1E1E1E"/>
<g clip-path="url(#clip0_42_765)">
<path d="M89.9805 33.163C93.1845 33.163 93.5645 33.175 94.8305 33.233C98.0825 33.381 99.6015 34.924 99.7495 38.152C99.8075 39.417 99.8185 39.797 99.8185 43.001C99.8185 46.206 99.8065 46.585 99.7495 47.85C99.6005 51.075 98.0855 52.621 94.8305 52.769C93.5645 52.827 93.1865 52.839 89.9805 52.839C86.7765 52.839 86.3965 52.827 85.1315 52.769C81.8715 52.62 80.3605 51.07 80.2125 47.849C80.1545 46.584 80.1425 46.205 80.1425 43C80.1425 39.796 80.1555 39.417 80.2125 38.151C80.3615 34.924 81.8765 33.38 85.1315 33.232C86.3975 33.175 86.7765 33.163 89.9805 33.163ZM89.9805 31C86.7215 31 86.3135 31.014 85.0335 31.072C80.6755 31.272 78.2535 33.69 78.0535 38.052C77.9945 39.333 77.9805 39.741 77.9805 43C77.9805 46.259 77.9945 46.668 78.0525 47.948C78.2525 52.306 80.6705 54.728 85.0325 54.928C86.3135 54.986 86.7215 55 89.9805 55C93.2395 55 93.6485 54.986 94.9285 54.928C99.2825 54.728 101.71 52.31 101.907 47.948C101.966 46.668 101.98 46.259 101.98 43C101.98 39.741 101.966 39.333 101.908 38.053C101.712 33.699 99.2915 31.273 94.9295 31.073C93.6485 31.014 93.2395 31 89.9805 31ZM89.9805 36.838C86.5775 36.838 83.8185 39.597 83.8185 43C83.8185 46.403 86.5775 49.163 89.9805 49.163C93.3835 49.163 96.1425 46.404 96.1425 43C96.1425 39.597 93.3835 36.838 89.9805 36.838ZM89.9805 47C87.7715 47 85.9805 45.21 85.9805 43C85.9805 40.791 87.7715 39 89.9805 39C92.1895 39 93.9805 40.791 93.9805 43C93.9805 45.21 92.1895 47 89.9805 47ZM96.3865 35.155C95.5905 35.155 94.9455 35.8 94.9455 36.595C94.9455 37.39 95.5905 38.035 96.3865 38.035C97.1815 38.035 97.8255 37.39 97.8255 36.595C97.8255 35.8 97.1815 35.155 96.3865 35.155Z" fill="#1E1E1E"/>
</g>
<g clip-path="url(#clip1_42_765)">
<path d="M137.595 34.184C133.991 33.938 125.964 33.939 122.365 34.184C118.468 34.45 118.009 36.804 117.98 43C118.009 49.185 118.464 51.549 122.365 51.816C125.965 52.061 133.991 52.062 137.595 51.816C141.492 51.55 141.951 49.196 141.98 43C141.951 36.815 141.496 34.451 137.595 34.184ZM126.98 47V39L134.98 42.993L126.98 47Z" fill="#1E1E1E"/>
</g>
<g clip-path="url(#clip2_42_765)">
<path d="M176.98 31H162.98C160.219 31 157.98 33.239 157.98 36V50C157.98 52.761 160.219 55 162.98 55H176.98C179.742 55 181.98 52.761 181.98 50V36C181.98 33.239 179.742 31 176.98 31ZM165.98 50H162.98V39H165.98V50ZM164.48 37.732C163.514 37.732 162.73 36.942 162.73 35.968C162.73 34.994 163.514 34.204 164.48 34.204C165.446 34.204 166.23 34.994 166.23 35.968C166.23 36.942 165.447 37.732 164.48 37.732ZM177.98 50H174.98V44.396C174.98 41.028 170.98 41.283 170.98 44.396V50H167.98V39H170.98V40.765C172.376 38.179 177.98 37.988 177.98 43.241V50Z" fill="#1E1E1E"/>
</g>
<path d="M501.108 42.2898H498.983C498.922 41.9413 498.811 41.6326 498.648 41.3636C498.485 41.0909 498.282 40.8598 498.04 40.6705C497.797 40.4811 497.521 40.339 497.21 40.2443C496.903 40.1458 496.572 40.0966 496.216 40.0966C495.583 40.0966 495.023 40.2557 494.534 40.5739C494.045 40.8883 493.663 41.3504 493.386 41.9602C493.11 42.5663 492.972 43.3068 492.972 44.1818C492.972 45.072 493.11 45.822 493.386 46.4318C493.667 47.0379 494.049 47.4962 494.534 47.8068C495.023 48.1136 495.581 48.267 496.21 48.267C496.559 48.267 496.884 48.2216 497.188 48.1307C497.494 48.036 497.769 47.8977 498.011 47.7159C498.258 47.5341 498.464 47.3106 498.631 47.0455C498.801 46.7803 498.919 46.4773 498.983 46.1364L501.108 46.1477C501.028 46.7008 500.856 47.2197 500.591 47.7045C500.33 48.1894 499.987 48.6174 499.562 48.9886C499.138 49.3561 498.642 49.6439 498.074 49.8523C497.506 50.0568 496.875 50.1591 496.182 50.1591C495.159 50.1591 494.246 49.9223 493.443 49.4489C492.64 48.9754 492.008 48.2917 491.545 47.3977C491.083 46.5038 490.852 45.4318 490.852 44.1818C490.852 42.928 491.085 41.8561 491.551 40.9659C492.017 40.072 492.652 39.3883 493.455 38.9148C494.258 38.4413 495.167 38.2045 496.182 38.2045C496.83 38.2045 497.432 38.2955 497.989 38.4773C498.545 38.6591 499.042 38.9261 499.477 39.2784C499.913 39.6269 500.271 40.0549 500.551 40.5625C500.835 41.0663 501.021 41.642 501.108 42.2898ZM506.754 50.1705C505.902 50.1705 505.163 49.983 504.538 49.608C503.913 49.233 503.429 48.7083 503.084 48.0341C502.743 47.3598 502.572 46.572 502.572 45.6705C502.572 44.7689 502.743 43.9792 503.084 43.3011C503.429 42.6231 503.913 42.0966 504.538 41.7216C505.163 41.3466 505.902 41.1591 506.754 41.1591C507.607 41.1591 508.345 41.3466 508.97 41.7216C509.595 42.0966 510.078 42.6231 510.419 43.3011C510.764 43.9792 510.936 44.7689 510.936 45.6705C510.936 46.572 510.764 47.3598 510.419 48.0341C510.078 48.7083 509.595 49.233 508.97 49.608C508.345 49.983 507.607 50.1705 506.754 50.1705ZM506.766 48.5227C507.228 48.5227 507.614 48.3958 507.925 48.142C508.235 47.8845 508.466 47.5398 508.618 47.108C508.773 46.6761 508.851 46.1951 508.851 45.6648C508.851 45.1307 508.773 44.6477 508.618 44.2159C508.466 43.7803 508.235 43.4337 507.925 43.1761C507.614 42.9186 507.228 42.7898 506.766 42.7898C506.292 42.7898 505.898 42.9186 505.584 43.1761C505.273 43.4337 505.04 43.7803 504.885 44.2159C504.733 44.6477 504.658 45.1307 504.658 45.6648C504.658 46.1951 504.733 46.6761 504.885 47.108C505.04 47.5398 505.273 47.8845 505.584 48.142C505.898 48.3958 506.292 48.5227 506.766 48.5227ZM512.682 53.2727V41.2727H514.705V42.7159H514.824C514.93 42.5038 515.08 42.2784 515.273 42.0398C515.466 41.7973 515.727 41.5909 516.057 41.4205C516.386 41.2462 516.807 41.1591 517.318 41.1591C517.992 41.1591 518.6 41.3314 519.142 41.6761C519.688 42.017 520.119 42.5227 520.438 43.1932C520.759 43.8598 520.92 44.678 520.92 45.6477C520.92 46.6061 520.763 47.4205 520.449 48.0909C520.134 48.7614 519.706 49.2727 519.165 49.625C518.623 49.9773 518.009 50.1534 517.324 50.1534C516.824 50.1534 516.409 50.0701 516.08 49.9034C515.75 49.7367 515.485 49.536 515.284 49.3011C515.087 49.0625 514.934 48.8371 514.824 48.625H514.739V53.2727H512.682ZM514.699 45.6364C514.699 46.2008 514.778 46.6951 514.938 47.1193C515.1 47.5436 515.333 47.875 515.636 48.1136C515.943 48.3485 516.314 48.4659 516.75 48.4659C517.205 48.4659 517.585 48.3447 517.892 48.1023C518.199 47.8561 518.43 47.5208 518.585 47.0966C518.744 46.6686 518.824 46.1818 518.824 45.6364C518.824 45.0947 518.746 44.6136 518.591 44.1932C518.436 43.7727 518.205 43.4432 517.898 43.2045C517.591 42.9659 517.208 42.8466 516.75 42.8466C516.311 42.8466 515.938 42.9621 515.631 43.1932C515.324 43.4242 515.091 43.7481 514.932 44.1648C514.777 44.5814 514.699 45.072 514.699 45.6364ZM523.663 53.2727C523.383 53.2727 523.124 53.25 522.885 53.2045C522.65 53.1629 522.463 53.1136 522.322 53.0568L522.8 51.4545C523.099 51.5417 523.366 51.5833 523.601 51.5795C523.836 51.5758 524.042 51.5019 524.22 51.358C524.402 51.2178 524.555 50.983 524.68 50.6534L524.857 50.1818L521.692 41.2727H523.874L525.885 47.8636H525.976L527.993 41.2727H530.18L526.686 51.0568C526.523 51.5189 526.307 51.9148 526.038 52.2443C525.769 52.5777 525.44 52.8314 525.05 53.0057C524.663 53.1837 524.201 53.2727 523.663 53.2727ZM531.604 50V41.2727H533.598V42.7273H533.689C533.848 42.2235 534.121 41.8352 534.507 41.5625C534.897 41.286 535.342 41.1477 535.842 41.1477C535.956 41.1477 536.083 41.1534 536.223 41.1648C536.367 41.1723 536.486 41.1856 536.581 41.2045V43.0966C536.494 43.0663 536.356 43.0398 536.166 43.017C535.981 42.9905 535.801 42.9773 535.626 42.9773C535.251 42.9773 534.914 43.0587 534.615 43.2216C534.32 43.3807 534.087 43.6023 533.916 43.8864C533.746 44.1705 533.661 44.4981 533.661 44.8693V50H531.604ZM537.947 50V41.2727H540.004V50H537.947ZM538.982 40.0341C538.656 40.0341 538.375 39.9261 538.141 39.7102C537.906 39.4905 537.788 39.2273 537.788 38.9205C537.788 38.6098 537.906 38.3466 538.141 38.1307C538.375 37.911 538.656 37.8011 538.982 37.8011C539.311 37.8011 539.591 37.911 539.822 38.1307C540.057 38.3466 540.175 38.6098 540.175 38.9205C540.175 39.2273 540.057 39.4905 539.822 39.7102C539.591 39.9261 539.311 40.0341 538.982 40.0341ZM545.915 53.4545C545.176 53.4545 544.542 53.3542 544.011 53.1534C543.481 52.9564 543.055 52.6913 542.733 52.358C542.411 52.0246 542.188 51.6553 542.062 51.25L543.915 50.8011C543.998 50.9716 544.119 51.1402 544.278 51.3068C544.438 51.4773 544.652 51.6174 544.92 51.7273C545.193 51.8409 545.536 51.8977 545.949 51.8977C546.532 51.8977 547.015 51.7557 547.398 51.4716C547.78 51.1913 547.972 50.7292 547.972 50.0852V48.4318H547.869C547.763 48.6439 547.608 48.8617 547.403 49.0852C547.203 49.3087 546.936 49.4962 546.602 49.6477C546.273 49.7992 545.858 49.875 545.358 49.875C544.688 49.875 544.08 49.7178 543.534 49.4034C542.992 49.0852 542.561 48.6117 542.239 47.983C541.92 47.3504 541.761 46.5587 541.761 45.608C541.761 44.6496 541.92 43.8409 542.239 43.1818C542.561 42.5189 542.994 42.017 543.54 41.6761C544.085 41.3314 544.693 41.1591 545.364 41.1591C545.875 41.1591 546.295 41.2462 546.625 41.4205C546.958 41.5909 547.223 41.7973 547.42 42.0398C547.617 42.2784 547.767 42.5038 547.869 42.7159H547.983V41.2727H550.011V50.142C550.011 50.8883 549.833 51.5057 549.477 51.9943C549.121 52.483 548.634 52.8485 548.017 53.0909C547.4 53.3333 546.699 53.4545 545.915 53.4545ZM545.932 48.2614C546.367 48.2614 546.739 48.1553 547.045 47.9432C547.352 47.7311 547.585 47.4261 547.744 47.0284C547.903 46.6307 547.983 46.1534 547.983 45.5966C547.983 45.0473 547.903 44.5663 547.744 44.1534C547.589 43.7405 547.358 43.4205 547.051 43.1932C546.748 42.9621 546.375 42.8466 545.932 42.8466C545.473 42.8466 545.091 42.9659 544.784 43.2045C544.477 43.4432 544.246 43.7708 544.091 44.1875C543.936 44.6004 543.858 45.0701 543.858 45.5966C543.858 46.1307 543.936 46.5985 544.091 47C544.25 47.3977 544.483 47.7083 544.79 47.9318C545.1 48.1515 545.481 48.2614 545.932 48.2614ZM554.176 44.8864V50H552.119V38.3636H554.131V42.7557H554.233C554.438 42.2633 554.754 41.875 555.182 41.5909C555.614 41.303 556.163 41.1591 556.83 41.1591C557.436 41.1591 557.964 41.286 558.415 41.5398C558.866 41.7936 559.214 42.1648 559.46 42.6534C559.71 43.142 559.835 43.7386 559.835 44.4432V50H557.778V44.7614C557.778 44.1742 557.627 43.7178 557.324 43.392C557.025 43.0625 556.604 42.8977 556.062 42.8977C555.699 42.8977 555.373 42.9773 555.085 43.1364C554.801 43.2917 554.578 43.517 554.415 43.8125C554.256 44.108 554.176 44.4659 554.176 44.8864ZM566.29 41.2727V42.8636H561.273V41.2727H566.29ZM562.511 39.1818H564.568V47.375C564.568 47.6515 564.61 47.8636 564.693 48.0114C564.78 48.1553 564.894 48.2538 565.034 48.3068C565.174 48.3598 565.33 48.3864 565.5 48.3864C565.629 48.3864 565.746 48.3769 565.852 48.358C565.962 48.339 566.045 48.322 566.102 48.3068L566.449 49.9148C566.339 49.9527 566.182 49.9943 565.977 50.0398C565.777 50.0852 565.53 50.1117 565.239 50.1193C564.723 50.1345 564.259 50.0568 563.847 49.8864C563.434 49.7121 563.106 49.4432 562.864 49.0795C562.625 48.7159 562.508 48.2614 562.511 47.7159V39.1818ZM579.189 51.6136C577.996 51.6136 576.935 51.4508 576.007 51.125C575.083 50.803 574.303 50.3295 573.666 49.7045C573.03 49.0758 572.547 48.3106 572.217 47.4091C571.888 46.5076 571.721 45.4773 571.717 44.3182C571.721 43.1856 571.89 42.1648 572.223 41.2557C572.556 40.3428 573.043 39.5625 573.683 38.9148C574.323 38.2633 575.106 37.7633 576.03 37.4148C576.954 37.0663 578.005 36.892 579.183 36.892C580.293 36.892 581.276 37.0606 582.132 37.3977C582.992 37.7348 583.717 38.2045 584.308 38.8068C584.903 39.4053 585.352 40.1061 585.655 40.9091C585.962 41.7083 586.115 42.5758 586.115 43.5114C586.115 44.1591 586.066 44.7727 585.967 45.3523C585.869 45.928 585.7 46.4394 585.462 46.8864C585.227 47.3333 584.907 47.6894 584.501 47.9545C584.096 48.2159 583.589 48.358 582.979 48.3807C582.596 48.3996 582.261 48.3636 581.973 48.2727C581.685 48.1818 581.452 48.0398 581.274 47.8466C581.1 47.6496 580.99 47.4091 580.945 47.125H580.876C580.789 47.3523 580.625 47.5606 580.382 47.75C580.143 47.9356 579.848 48.0814 579.496 48.1875C579.143 48.2898 578.751 48.3314 578.32 48.3125C577.857 48.2898 577.429 48.1837 577.036 47.9943C576.645 47.8011 576.304 47.5322 576.013 47.1875C575.725 46.839 575.501 46.4186 575.342 45.9261C575.183 45.4337 575.104 44.875 575.104 44.25C575.104 43.6402 575.191 43.1023 575.365 42.6364C575.539 42.1705 575.772 41.7727 576.064 41.4432C576.359 41.1136 576.693 40.8561 577.064 40.6705C577.435 40.4811 577.818 40.3598 578.212 40.3068C578.621 40.25 579.005 40.2557 579.365 40.3239C579.725 40.392 580.024 40.4962 580.263 40.6364C580.505 40.7765 580.657 40.9299 580.717 41.0966H580.797V40.4602H582.382V45.8693C582.386 46.1534 582.454 46.3826 582.587 46.5568C582.723 46.7311 582.912 46.8182 583.155 46.8182C583.458 46.8182 583.702 46.6989 583.888 46.4602C584.077 46.2178 584.214 45.8466 584.297 45.3466C584.384 44.8428 584.426 44.1989 584.422 43.4148C584.426 42.7708 584.34 42.1875 584.166 41.6648C583.996 41.1383 583.753 40.6761 583.439 40.2784C583.125 39.8807 582.748 39.5492 582.308 39.2841C581.873 39.0152 581.388 38.8125 580.854 38.6761C580.32 38.5398 579.75 38.4716 579.143 38.4716C578.215 38.4716 577.399 38.6136 576.695 38.8977C575.99 39.178 575.399 39.5777 574.922 40.0966C574.448 40.6155 574.09 41.2311 573.848 41.9432C573.609 42.6515 573.49 43.4356 573.49 44.2955C573.49 45.2159 573.615 46.0322 573.865 46.7443C574.119 47.4527 574.49 48.0492 574.979 48.5341C575.467 49.0189 576.071 49.3864 576.791 49.6364C577.515 49.8864 578.346 50.0114 579.286 50.0114C579.717 50.0114 580.14 49.9773 580.553 49.9091C580.965 49.8409 581.337 49.7614 581.666 49.6705C581.996 49.5795 582.25 49.5 582.428 49.4318L582.911 50.875C582.676 50.9962 582.357 51.1136 581.956 51.2273C581.558 51.3409 581.119 51.4337 580.638 51.5057C580.161 51.5777 579.678 51.6136 579.189 51.6136ZM578.791 46.6818C579.272 46.6818 579.657 46.589 579.945 46.4034C580.232 46.214 580.439 45.9337 580.564 45.5625C580.689 45.1913 580.75 44.7292 580.746 44.1761C580.746 43.661 580.681 43.2386 580.553 42.9091C580.424 42.5795 580.217 42.3352 579.933 42.1761C579.649 42.017 579.272 41.9375 578.803 41.9375C578.378 41.9375 578.017 42.0341 577.717 42.2273C577.422 42.4205 577.195 42.6875 577.036 43.0284C576.88 43.3655 576.803 43.75 576.803 44.1818C576.803 44.6136 576.865 45.0208 576.99 45.4034C577.119 45.7822 577.327 46.0909 577.615 46.3295C577.907 46.5644 578.299 46.6818 578.791 46.6818ZM591.909 50V48.4773L595.949 44.517C596.335 44.1269 596.657 43.7803 596.915 43.4773C597.172 43.1742 597.366 42.8807 597.494 42.5966C597.623 42.3125 597.688 42.0095 597.688 41.6875C597.688 41.3201 597.604 41.0057 597.438 40.7443C597.271 40.4792 597.042 40.2746 596.75 40.1307C596.458 39.9867 596.127 39.9148 595.756 39.9148C595.373 39.9148 595.038 39.9943 594.75 40.1534C594.462 40.3087 594.239 40.5303 594.08 40.8182C593.924 41.1061 593.847 41.4489 593.847 41.8466H591.841C591.841 41.108 592.009 40.4659 592.347 39.9205C592.684 39.375 593.148 38.9527 593.739 38.6534C594.333 38.3542 595.015 38.2045 595.784 38.2045C596.564 38.2045 597.25 38.3504 597.841 38.642C598.432 38.9337 598.89 39.3333 599.216 39.8409C599.545 40.3485 599.71 40.928 599.71 41.5795C599.71 42.0152 599.627 42.4432 599.46 42.8636C599.294 43.2841 599 43.75 598.58 44.2614C598.163 44.7727 597.578 45.392 596.824 46.1193L594.818 48.1591V48.2386H599.886V50H591.909ZM606.148 50.2216C605.212 50.2216 604.409 49.9848 603.739 49.5114C603.072 49.0341 602.559 48.3466 602.199 47.4489C601.843 46.5473 601.665 45.4621 601.665 44.1932C601.669 42.9242 601.848 41.8447 602.205 40.9545C602.564 40.0606 603.078 39.3788 603.744 38.9091C604.415 38.4394 605.216 38.2045 606.148 38.2045C607.08 38.2045 607.881 38.4394 608.551 38.9091C609.222 39.3788 609.735 40.0606 610.091 40.9545C610.451 41.8485 610.631 42.928 610.631 44.1932C610.631 45.4659 610.451 46.553 610.091 47.4545C609.735 48.3523 609.222 49.0379 608.551 49.5114C607.884 49.9848 607.083 50.2216 606.148 50.2216ZM606.148 48.4432C606.875 48.4432 607.449 48.0852 607.869 47.3693C608.294 46.6496 608.506 45.5909 608.506 44.1932C608.506 43.2689 608.409 42.4924 608.216 41.8636C608.023 41.2348 607.75 40.7614 607.398 40.4432C607.045 40.1212 606.629 39.9602 606.148 39.9602C605.424 39.9602 604.852 40.3201 604.432 41.0398C604.011 41.7557 603.799 42.8068 603.795 44.1932C603.792 45.1212 603.884 45.9015 604.074 46.5341C604.267 47.1667 604.54 47.6439 604.892 47.9659C605.244 48.2841 605.663 48.4432 606.148 48.4432ZM612.518 50V48.4773L616.558 44.517C616.945 44.1269 617.267 43.7803 617.524 43.4773C617.782 43.1742 617.975 42.8807 618.104 42.5966C618.232 42.3125 618.297 42.0095 618.297 41.6875C618.297 41.3201 618.214 41.0057 618.047 40.7443C617.88 40.4792 617.651 40.2746 617.359 40.1307C617.068 39.9867 616.736 39.9148 616.365 39.9148C615.982 39.9148 615.647 39.9943 615.359 40.1534C615.071 40.3087 614.848 40.5303 614.689 40.8182C614.534 41.1061 614.456 41.4489 614.456 41.8466H612.45C612.45 41.108 612.619 40.4659 612.956 39.9205C613.293 39.375 613.757 38.9527 614.348 38.6534C614.943 38.3542 615.625 38.2045 616.393 38.2045C617.174 38.2045 617.859 38.3504 618.45 38.642C619.041 38.9337 619.5 39.3333 619.825 39.8409C620.155 40.3485 620.32 40.928 620.32 41.5795C620.32 42.0152 620.236 42.4432 620.07 42.8636C619.903 43.2841 619.609 43.75 619.189 44.2614C618.772 44.7727 618.187 45.392 617.433 46.1193L615.428 48.1591V48.2386H620.496V50H612.518ZM626.501 50.1591C625.744 50.1591 625.066 50.017 624.467 49.733C623.869 49.4451 623.393 49.0511 623.041 48.5511C622.693 48.0511 622.507 47.4792 622.484 46.8352H624.53C624.568 47.3125 624.774 47.7027 625.149 48.0057C625.524 48.3049 625.975 48.4545 626.501 48.4545C626.914 48.4545 627.282 48.3598 627.604 48.1705C627.926 47.9811 628.179 47.7178 628.365 47.3807C628.551 47.0436 628.642 46.6591 628.638 46.2273C628.642 45.7879 628.549 45.3977 628.359 45.0568C628.17 44.7159 627.911 44.4489 627.581 44.2557C627.251 44.0587 626.873 43.9602 626.445 43.9602C626.096 43.9564 625.753 44.0208 625.416 44.1534C625.079 44.286 624.812 44.4602 624.615 44.6761L622.712 44.3636L623.32 38.3636H630.07V40.125H625.064L624.729 43.2102H624.797C625.013 42.9564 625.318 42.7462 625.712 42.5795C626.106 42.4091 626.537 42.3239 627.007 42.3239C627.712 42.3239 628.34 42.4905 628.893 42.8239C629.446 43.1534 629.882 43.608 630.2 44.1875C630.518 44.767 630.678 45.4299 630.678 46.1761C630.678 46.9451 630.5 47.6307 630.143 48.233C629.791 48.8314 629.301 49.303 628.672 49.6477C628.047 49.9886 627.323 50.1591 626.501 50.1591ZM646.624 42.2898H644.499C644.438 41.9413 644.326 41.6326 644.163 41.3636C644 41.0909 643.798 40.8598 643.555 40.6705C643.313 40.4811 643.036 40.339 642.726 40.2443C642.419 40.1458 642.088 40.0966 641.732 40.0966C641.099 40.0966 640.538 40.2557 640.05 40.5739C639.561 40.8883 639.179 41.3504 638.902 41.9602C638.625 42.5663 638.487 43.3068 638.487 44.1818C638.487 45.072 638.625 45.822 638.902 46.4318C639.182 47.0379 639.565 47.4962 640.05 47.8068C640.538 48.1136 641.097 48.267 641.726 48.267C642.074 48.267 642.4 48.2216 642.703 48.1307C643.01 48.036 643.285 47.8977 643.527 47.7159C643.773 47.5341 643.98 47.3106 644.146 47.0455C644.317 46.7803 644.434 46.4773 644.499 46.1364L646.624 46.1477C646.544 46.7008 646.372 47.2197 646.107 47.7045C645.845 48.1894 645.502 48.6174 645.078 48.9886C644.654 49.3561 644.158 49.6439 643.589 49.8523C643.021 50.0568 642.391 50.1591 641.697 50.1591C640.675 50.1591 639.762 49.9223 638.959 49.4489C638.156 48.9754 637.523 48.2917 637.061 47.3977C636.599 46.5038 636.368 45.4318 636.368 44.1818C636.368 42.928 636.601 41.8561 637.067 40.9659C637.533 40.072 638.167 39.3883 638.97 38.9148C639.773 38.4413 640.682 38.2045 641.697 38.2045C642.345 38.2045 642.947 38.2955 643.504 38.4773C644.061 38.6591 644.557 38.9261 644.993 39.2784C645.429 39.6269 645.786 40.0549 646.067 40.5625C646.351 41.0663 646.536 41.642 646.624 42.2898ZM652.27 50.1705C651.418 50.1705 650.679 49.983 650.054 49.608C649.429 49.233 648.944 48.7083 648.599 48.0341C648.259 47.3598 648.088 46.572 648.088 45.6705C648.088 44.7689 648.259 43.9792 648.599 43.3011C648.944 42.6231 649.429 42.0966 650.054 41.7216C650.679 41.3466 651.418 41.1591 652.27 41.1591C653.122 41.1591 653.861 41.3466 654.486 41.7216C655.111 42.0966 655.594 42.6231 655.935 43.3011C656.279 43.9792 656.452 44.7689 656.452 45.6705C656.452 46.572 656.279 47.3598 655.935 48.0341C655.594 48.7083 655.111 49.233 654.486 49.608C653.861 49.983 653.122 50.1705 652.27 50.1705ZM652.281 48.5227C652.743 48.5227 653.13 48.3958 653.44 48.142C653.751 47.8845 653.982 47.5398 654.134 47.108C654.289 46.6761 654.366 46.1951 654.366 45.6648C654.366 45.1307 654.289 44.6477 654.134 44.2159C653.982 43.7803 653.751 43.4337 653.44 43.1761C653.13 42.9186 652.743 42.7898 652.281 42.7898C651.808 42.7898 651.414 42.9186 651.099 43.1761C650.789 43.4337 650.556 43.7803 650.401 44.2159C650.249 44.6477 650.173 45.1307 650.173 45.6648C650.173 46.1951 650.249 46.6761 650.401 47.108C650.556 47.5398 650.789 47.8845 651.099 48.142C651.414 48.3958 651.808 48.5227 652.281 48.5227ZM662.004 50.1705C661.152 50.1705 660.413 49.983 659.788 49.608C659.163 49.233 658.679 48.7083 658.334 48.0341C657.993 47.3598 657.822 46.572 657.822 45.6705C657.822 44.7689 657.993 43.9792 658.334 43.3011C658.679 42.6231 659.163 42.0966 659.788 41.7216C660.413 41.3466 661.152 41.1591 662.004 41.1591C662.857 41.1591 663.595 41.3466 664.22 41.7216C664.845 42.0966 665.328 42.6231 665.669 43.3011C666.014 43.9792 666.186 44.7689 666.186 45.6705C666.186 46.572 666.014 47.3598 665.669 48.0341C665.328 48.7083 664.845 49.233 664.22 49.608C663.595 49.983 662.857 50.1705 662.004 50.1705ZM662.016 48.5227C662.478 48.5227 662.864 48.3958 663.175 48.142C663.485 47.8845 663.716 47.5398 663.868 47.108C664.023 46.6761 664.101 46.1951 664.101 45.6648C664.101 45.1307 664.023 44.6477 663.868 44.2159C663.716 43.7803 663.485 43.4337 663.175 43.1761C662.864 42.9186 662.478 42.7898 662.016 42.7898C661.542 42.7898 661.148 42.9186 660.834 43.1761C660.523 43.4337 660.29 43.7803 660.135 44.2159C659.983 44.6477 659.908 45.1307 659.908 45.6648C659.908 46.1951 659.983 46.6761 660.135 47.108C660.29 47.5398 660.523 47.8845 660.834 48.142C661.148 48.3958 661.542 48.5227 662.016 48.5227ZM669.807 47.2614L669.801 44.7784H670.131L673.267 41.2727H675.67L671.812 45.5682H671.386L669.807 47.2614ZM667.932 50V38.3636H669.989V50H667.932ZM673.409 50L670.568 46.0284L671.955 44.5795L675.869 50H673.409ZM677.041 50V41.2727H679.098V50H677.041ZM678.075 40.0341C677.75 40.0341 677.469 39.9261 677.234 39.7102C677 39.4905 676.882 39.2273 676.882 38.9205C676.882 38.6098 677 38.3466 677.234 38.1307C677.469 37.911 677.75 37.8011 678.075 37.8011C678.405 37.8011 678.685 37.911 678.916 38.1307C679.151 38.3466 679.268 38.6098 679.268 38.9205C679.268 39.2273 679.151 39.4905 678.916 39.7102C678.685 39.9261 678.405 40.0341 678.075 40.0341ZM685.077 50.1705C684.202 50.1705 683.446 49.9886 682.81 49.625C682.177 49.2576 681.69 48.7386 681.349 48.0682C681.009 47.3939 680.838 46.6004 680.838 45.6875C680.838 44.7898 681.009 44.0019 681.349 43.3239C681.694 42.642 682.175 42.1117 682.793 41.733C683.41 41.3504 684.135 41.1591 684.969 41.1591C685.507 41.1591 686.014 41.2462 686.491 41.4205C686.973 41.5909 687.397 41.8561 687.764 42.2159C688.135 42.5758 688.427 43.0341 688.639 43.5909C688.851 44.1439 688.957 44.803 688.957 45.5682V46.1989H681.804V44.8125H686.986C686.982 44.4186 686.897 44.0682 686.73 43.7614C686.563 43.4508 686.33 43.2064 686.031 43.0284C685.736 42.8504 685.391 42.7614 684.997 42.7614C684.577 42.7614 684.207 42.8636 683.889 43.0682C683.571 43.2689 683.323 43.5341 683.145 43.8636C682.971 44.1894 682.882 44.5473 682.878 44.9375V46.1477C682.878 46.6553 682.971 47.0909 683.156 47.4545C683.342 47.8144 683.601 48.0909 683.935 48.2841C684.268 48.4735 684.658 48.5682 685.105 48.5682C685.404 48.5682 685.675 48.5265 685.918 48.4432C686.16 48.3561 686.37 48.2292 686.548 48.0625C686.726 47.8958 686.861 47.6894 686.952 47.4432L688.872 47.6591C688.751 48.1667 688.52 48.6098 688.179 48.9886C687.842 49.3636 687.41 49.6553 686.884 49.8636C686.357 50.0682 685.755 50.1705 685.077 50.1705ZM692.55 38.3636L695.112 42.625H695.203L697.777 38.3636H700.18L696.595 44.1818L700.237 50H697.794L695.203 45.767H695.112L692.521 50H690.089L693.766 44.1818L690.135 38.3636H692.55ZM701.744 53.2727V41.2727H703.767V42.7159H703.886C703.992 42.5038 704.142 42.2784 704.335 42.0398C704.528 41.7973 704.79 41.5909 705.119 41.4205C705.449 41.2462 705.869 41.1591 706.381 41.1591C707.055 41.1591 707.663 41.3314 708.205 41.6761C708.75 42.017 709.182 42.5227 709.5 43.1932C709.822 43.8598 709.983 44.678 709.983 45.6477C709.983 46.6061 709.826 47.4205 709.511 48.0909C709.197 48.7614 708.769 49.2727 708.227 49.625C707.686 49.9773 707.072 50.1534 706.386 50.1534C705.886 50.1534 705.472 50.0701 705.142 49.9034C704.813 49.7367 704.547 49.536 704.347 49.3011C704.15 49.0625 703.996 48.8371 703.886 48.625H703.801V53.2727H701.744ZM703.761 45.6364C703.761 46.2008 703.841 46.6951 704 47.1193C704.163 47.5436 704.396 47.875 704.699 48.1136C705.006 48.3485 705.377 48.4659 705.812 48.4659C706.267 48.4659 706.648 48.3447 706.955 48.1023C707.261 47.8561 707.492 47.5208 707.648 47.0966C707.807 46.6686 707.886 46.1818 707.886 45.6364C707.886 45.0947 707.809 44.6136 707.653 44.1932C707.498 43.7727 707.267 43.4432 706.96 43.2045C706.653 42.9659 706.271 42.8466 705.812 42.8466C705.373 42.8466 705 42.9621 704.693 43.1932C704.386 43.4242 704.153 43.7481 703.994 44.1648C703.839 44.5814 703.761 45.072 703.761 45.6364ZM711.744 50V41.2727H713.739V42.7273H713.83C713.989 42.2235 714.261 41.8352 714.648 41.5625C715.038 41.286 715.483 41.1477 715.983 41.1477C716.097 41.1477 716.223 41.1534 716.364 41.1648C716.508 41.1723 716.627 41.1856 716.722 41.2045V43.0966C716.634 43.0663 716.496 43.0398 716.307 43.017C716.121 42.9905 715.941 42.9773 715.767 42.9773C715.392 42.9773 715.055 43.0587 714.756 43.2216C714.46 43.3807 714.227 43.6023 714.057 43.8864C713.886 44.1705 713.801 44.4981 713.801 44.8693V50H711.744ZM721.592 50.1705C720.717 50.1705 719.962 49.9886 719.325 49.625C718.693 49.2576 718.206 48.7386 717.865 48.0682C717.524 47.3939 717.354 46.6004 717.354 45.6875C717.354 44.7898 717.524 44.0019 717.865 43.3239C718.21 42.642 718.691 42.1117 719.308 41.733C719.926 41.3504 720.651 41.1591 721.484 41.1591C722.022 41.1591 722.53 41.2462 723.007 41.4205C723.488 41.5909 723.912 41.8561 724.28 42.2159C724.651 42.5758 724.943 43.0341 725.155 43.5909C725.367 44.1439 725.473 44.803 725.473 45.5682V46.1989H718.32V44.8125H723.501C723.498 44.4186 723.412 44.0682 723.246 43.7614C723.079 43.4508 722.846 43.2064 722.547 43.0284C722.251 42.8504 721.907 42.7614 721.513 42.7614C721.092 42.7614 720.723 42.8636 720.405 43.0682C720.087 43.2689 719.839 43.5341 719.661 43.8636C719.486 44.1894 719.397 44.5473 719.393 44.9375V46.1477C719.393 46.6553 719.486 47.0909 719.672 47.4545C719.857 47.8144 720.117 48.0909 720.45 48.2841C720.784 48.4735 721.174 48.5682 721.621 48.5682C721.92 48.5682 722.191 48.5265 722.433 48.4432C722.676 48.3561 722.886 48.2292 723.064 48.0625C723.242 47.8958 723.376 47.6894 723.467 47.4432L725.388 47.6591C725.267 48.1667 725.036 48.6098 724.695 48.9886C724.357 49.3636 723.926 49.6553 723.399 49.8636C722.873 50.0682 722.27 50.1705 721.592 50.1705ZM734.111 43.5795L732.236 43.7841C732.183 43.5947 732.09 43.4167 731.957 43.25C731.829 43.0833 731.654 42.9489 731.435 42.8466C731.215 42.7443 730.946 42.6932 730.628 42.6932C730.2 42.6932 729.84 42.786 729.548 42.9716C729.26 43.1572 729.118 43.3977 729.122 43.6932C729.118 43.947 729.211 44.1534 729.401 44.3125C729.594 44.4716 729.912 44.6023 730.355 44.7045L731.844 45.0227C732.67 45.2008 733.283 45.483 733.685 45.8693C734.09 46.2557 734.295 46.7614 734.298 47.3864C734.295 47.9356 734.134 48.4205 733.815 48.8409C733.501 49.2576 733.063 49.5833 732.503 49.8182C731.942 50.053 731.298 50.1705 730.571 50.1705C729.503 50.1705 728.643 49.947 727.991 49.5C727.34 49.0492 726.952 48.4223 726.827 47.6193L728.832 47.4261C728.923 47.8201 729.116 48.1174 729.412 48.3182C729.707 48.5189 730.092 48.6193 730.565 48.6193C731.054 48.6193 731.446 48.5189 731.741 48.3182C732.041 48.1174 732.19 47.8693 732.19 47.5739C732.19 47.3239 732.094 47.1174 731.901 46.9545C731.711 46.7917 731.416 46.6667 731.014 46.5795L729.526 46.267C728.688 46.0928 728.069 45.7992 727.668 45.3864C727.266 44.9697 727.067 44.4432 727.071 43.8068C727.067 43.2689 727.213 42.803 727.509 42.4091C727.808 42.0114 728.223 41.7045 728.753 41.4886C729.287 41.2689 729.902 41.1591 730.599 41.1591C731.622 41.1591 732.427 41.3769 733.014 41.8125C733.605 42.2481 733.971 42.8371 734.111 43.5795ZM742.892 43.5795L741.017 43.7841C740.964 43.5947 740.871 43.4167 740.739 43.25C740.61 43.0833 740.436 42.9489 740.216 42.8466C739.996 42.7443 739.727 42.6932 739.409 42.6932C738.981 42.6932 738.621 42.786 738.33 42.9716C738.042 43.1572 737.9 43.3977 737.903 43.6932C737.9 43.947 737.992 44.1534 738.182 44.3125C738.375 44.4716 738.693 44.6023 739.136 44.7045L740.625 45.0227C741.451 45.2008 742.064 45.483 742.466 45.8693C742.871 46.2557 743.076 46.7614 743.08 47.3864C743.076 47.9356 742.915 48.4205 742.597 48.8409C742.282 49.2576 741.845 49.5833 741.284 49.8182C740.723 50.053 740.08 50.1705 739.352 50.1705C738.284 50.1705 737.424 49.947 736.773 49.5C736.121 49.0492 735.733 48.4223 735.608 47.6193L737.614 47.4261C737.705 47.8201 737.898 48.1174 738.193 48.3182C738.489 48.5189 738.873 48.6193 739.347 48.6193C739.835 48.6193 740.227 48.5189 740.523 48.3182C740.822 48.1174 740.972 47.8693 740.972 47.5739C740.972 47.3239 740.875 47.1174 740.682 46.9545C740.492 46.7917 740.197 46.6667 739.795 46.5795L738.307 46.267C737.47 46.0928 736.85 45.7992 736.449 45.3864C736.047 44.9697 735.848 44.4432 735.852 43.8068C735.848 43.2689 735.994 42.803 736.29 42.4091C736.589 42.0114 737.004 41.7045 737.534 41.4886C738.068 41.2689 738.684 41.1591 739.381 41.1591C740.403 41.1591 741.208 41.3769 741.795 41.8125C742.386 42.2481 742.752 42.8371 742.892 43.5795ZM746.043 50.125C745.698 50.125 745.402 50.0038 745.156 49.7614C744.91 49.5189 744.789 49.2235 744.793 48.875C744.789 48.5341 744.91 48.2424 745.156 48C745.402 47.7576 745.698 47.6364 746.043 47.6364C746.376 47.6364 746.666 47.7576 746.912 48C747.162 48.2424 747.289 48.5341 747.293 48.875C747.289 49.1061 747.228 49.3163 747.111 49.5057C746.997 49.6951 746.846 49.8466 746.656 49.9602C746.471 50.0701 746.266 50.125 746.043 50.125ZM754.611 50H752.361L756.457 38.3636H759.06L763.162 50H760.912L757.804 40.75H757.713L754.611 50ZM754.685 45.4375H760.821V47.1307H754.685V45.4375ZM766.661 38.3636V50H764.604V38.3636H766.661ZM770.832 38.3636V50H768.776V38.3636H770.832ZM777.007 50V38.3636H781.371C782.265 38.3636 783.015 38.5189 783.621 38.8295C784.231 39.1402 784.691 39.5758 785.001 40.1364C785.316 40.6932 785.473 41.3428 785.473 42.0852C785.473 42.8314 785.314 43.4792 784.996 44.0284C784.681 44.5739 784.217 44.9962 783.604 45.2955C782.99 45.5909 782.236 45.7386 781.342 45.7386H778.234V43.9886H781.058C781.581 43.9886 782.009 43.9167 782.342 43.7727C782.676 43.625 782.922 43.411 783.081 43.1307C783.244 42.8466 783.325 42.4981 783.325 42.0852C783.325 41.6723 783.244 41.3201 783.081 41.0284C782.918 40.733 782.67 40.5095 782.337 40.358C782.003 40.2027 781.573 40.125 781.047 40.125H779.115V50H777.007ZM783.018 44.7273L785.899 50H783.547L780.717 44.7273H783.018ZM787.322 50V41.2727H789.379V50H787.322ZM788.357 40.0341C788.031 40.0341 787.75 39.9261 787.516 39.7102C787.281 39.4905 787.163 39.2273 787.163 38.9205C787.163 38.6098 787.281 38.3466 787.516 38.1307C787.75 37.911 788.031 37.8011 788.357 37.8011C788.686 37.8011 788.966 37.911 789.197 38.1307C789.432 38.3466 789.55 38.6098 789.55 38.9205C789.55 39.2273 789.432 39.4905 789.197 39.7102C788.966 39.9261 788.686 40.0341 788.357 40.0341ZM795.29 53.4545C794.551 53.4545 793.917 53.3542 793.386 53.1534C792.856 52.9564 792.43 52.6913 792.108 52.358C791.786 52.0246 791.562 51.6553 791.438 51.25L793.29 50.8011C793.373 50.9716 793.494 51.1402 793.653 51.3068C793.813 51.4773 794.027 51.6174 794.295 51.7273C794.568 51.8409 794.911 51.8977 795.324 51.8977C795.907 51.8977 796.39 51.7557 796.773 51.4716C797.155 51.1913 797.347 50.7292 797.347 50.0852V48.4318H797.244C797.138 48.6439 796.983 48.8617 796.778 49.0852C796.578 49.3087 796.311 49.4962 795.977 49.6477C795.648 49.7992 795.233 49.875 794.733 49.875C794.062 49.875 793.455 49.7178 792.909 49.4034C792.367 49.0852 791.936 48.6117 791.614 47.983C791.295 47.3504 791.136 46.5587 791.136 45.608C791.136 44.6496 791.295 43.8409 791.614 43.1818C791.936 42.5189 792.369 42.017 792.915 41.6761C793.46 41.3314 794.068 41.1591 794.739 41.1591C795.25 41.1591 795.67 41.2462 796 41.4205C796.333 41.5909 796.598 41.7973 796.795 42.0398C796.992 42.2784 797.142 42.5038 797.244 42.7159H797.358V41.2727H799.386V50.142C799.386 50.8883 799.208 51.5057 798.852 51.9943C798.496 52.483 798.009 52.8485 797.392 53.0909C796.775 53.3333 796.074 53.4545 795.29 53.4545ZM795.307 48.2614C795.742 48.2614 796.114 48.1553 796.42 47.9432C796.727 47.7311 796.96 47.4261 797.119 47.0284C797.278 46.6307 797.358 46.1534 797.358 45.5966C797.358 45.0473 797.278 44.5663 797.119 44.1534C796.964 43.7405 796.733 43.4205 796.426 43.1932C796.123 42.9621 795.75 42.8466 795.307 42.8466C794.848 42.8466 794.466 42.9659 794.159 43.2045C793.852 43.4432 793.621 43.7708 793.466 44.1875C793.311 44.6004 793.233 45.0701 793.233 45.5966C793.233 46.1307 793.311 46.5985 793.466 47C793.625 47.3977 793.858 47.7083 794.165 47.9318C794.475 48.1515 794.856 48.2614 795.307 48.2614ZM803.551 44.8864V50H801.494V38.3636H803.506V42.7557H803.608C803.813 42.2633 804.129 41.875 804.557 41.5909C804.989 41.303 805.538 41.1591 806.205 41.1591C806.811 41.1591 807.339 41.286 807.79 41.5398C808.241 41.7936 808.589 42.1648 808.835 42.6534C809.085 43.142 809.21 43.7386 809.21 44.4432V50H807.153V44.7614C807.153 44.1742 807.002 43.7178 806.699 43.392C806.4 43.0625 805.979 42.8977 805.438 42.8977C805.074 42.8977 804.748 42.9773 804.46 43.1364C804.176 43.2917 803.953 43.517 803.79 43.8125C803.631 44.108 803.551 44.4659 803.551 44.8864ZM815.665 41.2727V42.8636H810.648V41.2727H815.665ZM811.886 39.1818H813.943V47.375C813.943 47.6515 813.985 47.8636 814.068 48.0114C814.155 48.1553 814.269 48.2538 814.409 48.3068C814.549 48.3598 814.705 48.3864 814.875 48.3864C815.004 48.3864 815.121 48.3769 815.227 48.358C815.337 48.339 815.42 48.322 815.477 48.3068L815.824 49.9148C815.714 49.9527 815.557 49.9943 815.352 50.0398C815.152 50.0852 814.905 50.1117 814.614 50.1193C814.098 50.1345 813.634 50.0568 813.222 49.8864C812.809 49.7121 812.481 49.4432 812.239 49.0795C812 48.7159 811.883 48.2614 811.886 47.7159V39.1818ZM821.445 50V38.3636H825.808C826.702 38.3636 827.452 38.5189 828.058 38.8295C828.668 39.1402 829.128 39.5758 829.439 40.1364C829.753 40.6932 829.911 41.3428 829.911 42.0852C829.911 42.8314 829.751 43.4792 829.433 44.0284C829.119 44.5739 828.655 44.9962 828.041 45.2955C827.428 45.5909 826.674 45.7386 825.78 45.7386H822.672V43.9886H825.496C826.018 43.9886 826.446 43.9167 826.78 43.7727C827.113 43.625 827.359 43.411 827.518 43.1307C827.681 42.8466 827.763 42.4981 827.763 42.0852C827.763 41.6723 827.681 41.3201 827.518 41.0284C827.356 40.733 827.107 40.5095 826.774 40.358C826.441 40.2027 826.011 40.125 825.484 40.125H823.553V50H821.445ZM827.456 44.7273L830.337 50H827.984L825.155 44.7273H827.456ZM835.499 50.1705C834.624 50.1705 833.868 49.9886 833.232 49.625C832.599 49.2576 832.112 48.7386 831.771 48.0682C831.43 47.3939 831.26 46.6004 831.26 45.6875C831.26 44.7898 831.43 44.0019 831.771 43.3239C832.116 42.642 832.597 42.1117 833.214 41.733C833.832 41.3504 834.557 41.1591 835.391 41.1591C835.929 41.1591 836.436 41.2462 836.913 41.4205C837.394 41.5909 837.819 41.8561 838.186 42.2159C838.557 42.5758 838.849 43.0341 839.061 43.5909C839.273 44.1439 839.379 44.803 839.379 45.5682V46.1989H832.226V44.8125H837.408C837.404 44.4186 837.319 44.0682 837.152 43.7614C836.985 43.4508 836.752 43.2064 836.453 43.0284C836.158 42.8504 835.813 42.7614 835.419 42.7614C834.999 42.7614 834.629 42.8636 834.311 43.0682C833.993 43.2689 833.745 43.5341 833.567 43.8636C833.393 44.1894 833.304 44.5473 833.3 44.9375V46.1477C833.3 46.6553 833.393 47.0909 833.578 47.4545C833.764 47.8144 834.023 48.0909 834.357 48.2841C834.69 48.4735 835.08 48.5682 835.527 48.5682C835.826 48.5682 836.097 48.5265 836.339 48.4432C836.582 48.3561 836.792 48.2292 836.97 48.0625C837.148 47.8958 837.283 47.6894 837.374 47.4432L839.294 47.6591C839.173 48.1667 838.942 48.6098 838.601 48.9886C838.264 49.3636 837.832 49.6553 837.305 49.8636C836.779 50.0682 836.177 50.1705 835.499 50.1705ZM848.017 43.5795L846.142 43.7841C846.089 43.5947 845.996 43.4167 845.864 43.25C845.735 43.0833 845.561 42.9489 845.341 42.8466C845.121 42.7443 844.852 42.6932 844.534 42.6932C844.106 42.6932 843.746 42.786 843.455 42.9716C843.167 43.1572 843.025 43.3977 843.028 43.6932C843.025 43.947 843.117 44.1534 843.307 44.3125C843.5 44.4716 843.818 44.6023 844.261 44.7045L845.75 45.0227C846.576 45.2008 847.189 45.483 847.591 45.8693C847.996 46.2557 848.201 46.7614 848.205 47.3864C848.201 47.9356 848.04 48.4205 847.722 48.8409C847.407 49.2576 846.97 49.5833 846.409 49.8182C845.848 50.053 845.205 50.1705 844.477 50.1705C843.409 50.1705 842.549 49.947 841.898 49.5C841.246 49.0492 840.858 48.4223 840.733 47.6193L842.739 47.4261C842.83 47.8201 843.023 48.1174 843.318 48.3182C843.614 48.5189 843.998 48.6193 844.472 48.6193C844.96 48.6193 845.352 48.5189 845.648 48.3182C845.947 48.1174 846.097 47.8693 846.097 47.5739C846.097 47.3239 846 47.1174 845.807 46.9545C845.617 46.7917 845.322 46.6667 844.92 46.5795L843.432 46.267C842.595 46.0928 841.975 45.7992 841.574 45.3864C841.172 44.9697 840.973 44.4432 840.977 43.8068C840.973 43.2689 841.119 42.803 841.415 42.4091C841.714 42.0114 842.129 41.7045 842.659 41.4886C843.193 41.2689 843.809 41.1591 844.506 41.1591C845.528 41.1591 846.333 41.3769 846.92 41.8125C847.511 42.2481 847.877 42.8371 848.017 43.5795ZM853.764 50.1705C852.889 50.1705 852.134 49.9886 851.497 49.625C850.865 49.2576 850.378 48.7386 850.037 48.0682C849.696 47.3939 849.526 46.6004 849.526 45.6875C849.526 44.7898 849.696 44.0019 850.037 43.3239C850.382 42.642 850.863 42.1117 851.48 41.733C852.098 41.3504 852.823 41.1591 853.656 41.1591C854.194 41.1591 854.702 41.2462 855.179 41.4205C855.66 41.5909 856.084 41.8561 856.452 42.2159C856.823 42.5758 857.115 43.0341 857.327 43.5909C857.539 44.1439 857.645 44.803 857.645 45.5682V46.1989H850.491V44.8125H855.673C855.67 44.4186 855.584 44.0682 855.418 43.7614C855.251 43.4508 855.018 43.2064 854.719 43.0284C854.423 42.8504 854.079 42.7614 853.685 42.7614C853.264 42.7614 852.895 42.8636 852.577 43.0682C852.259 43.2689 852.01 43.5341 851.832 43.8636C851.658 44.1894 851.569 44.5473 851.565 44.9375V46.1477C851.565 46.6553 851.658 47.0909 851.844 47.4545C852.029 47.8144 852.289 48.0909 852.622 48.2841C852.955 48.4735 853.346 48.5682 853.793 48.5682C854.092 48.5682 854.363 48.5265 854.605 48.4432C854.848 48.3561 855.058 48.2292 855.236 48.0625C855.414 47.8958 855.548 47.6894 855.639 47.4432L857.56 47.6591C857.438 48.1667 857.207 48.6098 856.866 48.9886C856.529 49.3636 856.098 49.6553 855.571 49.8636C855.045 50.0682 854.442 50.1705 853.764 50.1705ZM859.385 50V41.2727H861.379V42.7273H861.47C861.629 42.2235 861.902 41.8352 862.288 41.5625C862.679 41.286 863.124 41.1477 863.624 41.1477C863.737 41.1477 863.864 41.1534 864.004 41.1648C864.148 41.1723 864.268 41.1856 864.362 41.2045V43.0966C864.275 43.0663 864.137 43.0398 863.947 43.017C863.762 42.9905 863.582 42.9773 863.408 42.9773C863.033 42.9773 862.696 43.0587 862.396 43.2216C862.101 43.3807 861.868 43.6023 861.697 43.8864C861.527 44.1705 861.442 44.4981 861.442 44.8693V50H859.385ZM873.79 41.2727L870.682 50H868.409L865.301 41.2727H867.494L869.5 47.7557H869.591L871.602 41.2727H873.79ZM878.78 50.1705C877.905 50.1705 877.149 49.9886 876.513 49.625C875.88 49.2576 875.393 48.7386 875.053 48.0682C874.712 47.3939 874.541 46.6004 874.541 45.6875C874.541 44.7898 874.712 44.0019 875.053 43.3239C875.397 42.642 875.878 42.1117 876.496 41.733C877.113 41.3504 877.839 41.1591 878.672 41.1591C879.21 41.1591 879.717 41.2462 880.195 41.4205C880.676 41.5909 881.1 41.8561 881.467 42.2159C881.839 42.5758 882.13 43.0341 882.342 43.5909C882.554 44.1439 882.661 44.803 882.661 45.5682V46.1989H875.507V44.8125H880.689C880.685 44.4186 880.6 44.0682 880.433 43.7614C880.267 43.4508 880.034 43.2064 879.734 43.0284C879.439 42.8504 879.094 42.7614 878.7 42.7614C878.28 42.7614 877.911 42.8636 877.592 43.0682C877.274 43.2689 877.026 43.5341 876.848 43.8636C876.674 44.1894 876.585 44.5473 876.581 44.9375V46.1477C876.581 46.6553 876.674 47.0909 876.859 47.4545C877.045 47.8144 877.304 48.0909 877.638 48.2841C877.971 48.4735 878.361 48.5682 878.808 48.5682C879.107 48.5682 879.378 48.5265 879.621 48.4432C879.863 48.3561 880.073 48.2292 880.251 48.0625C880.429 47.8958 880.564 47.6894 880.655 47.4432L882.575 47.6591C882.454 48.1667 882.223 48.6098 881.882 48.9886C881.545 49.3636 881.113 49.6553 880.587 49.8636C880.06 50.0682 879.458 50.1705 878.78 50.1705ZM887.639 50.1534C886.954 50.1534 886.34 49.9773 885.798 49.625C885.257 49.2727 884.829 48.7614 884.514 48.0909C884.2 47.4205 884.043 46.6061 884.043 45.6477C884.043 44.678 884.202 43.8598 884.52 43.1932C884.842 42.5227 885.276 42.017 885.821 41.6761C886.366 41.3314 886.974 41.1591 887.645 41.1591C888.156 41.1591 888.577 41.2462 888.906 41.4205C889.236 41.5909 889.497 41.7973 889.69 42.0398C889.884 42.2784 890.033 42.5038 890.139 42.7159H890.224V38.3636H892.287V50H890.264V48.625H890.139C890.033 48.8371 889.88 49.0625 889.679 49.3011C889.478 49.536 889.213 49.7367 888.884 49.9034C888.554 50.0701 888.139 50.1534 887.639 50.1534ZM888.213 48.4659C888.649 48.4659 889.02 48.3485 889.327 48.1136C889.634 47.875 889.866 47.5436 890.026 47.1193C890.185 46.6951 890.264 46.2008 890.264 45.6364C890.264 45.072 890.185 44.5814 890.026 44.1648C889.87 43.7481 889.639 43.4242 889.332 43.1932C889.029 42.9621 888.656 42.8466 888.213 42.8466C887.755 42.8466 887.372 42.9659 887.065 43.2045C886.759 43.4432 886.527 43.7727 886.372 44.1932C886.217 44.6136 886.139 45.0947 886.139 45.6364C886.139 46.1818 886.217 46.6686 886.372 47.0966C886.531 47.5208 886.764 47.8561 887.071 48.1023C887.382 48.3447 887.762 48.4659 888.213 48.4659Z" fill="#1E1E1E"/>
<path d="M1314.64 50H1312.39L1316.49 38.3636H1319.09L1323.19 50H1320.94L1317.84 40.75H1317.74L1314.64 50ZM1314.72 45.4375H1320.85V47.1307H1314.72V45.4375ZM1324.73 50V38.3636H1326.78V42.7159H1326.87C1326.97 42.5038 1327.12 42.2784 1327.32 42.0398C1327.51 41.7973 1327.77 41.5909 1328.1 41.4205C1328.43 41.2462 1328.85 41.1591 1329.36 41.1591C1330.04 41.1591 1330.64 41.3314 1331.19 41.6761C1331.73 42.017 1332.16 42.5227 1332.48 43.1932C1332.8 43.8598 1332.96 44.678 1332.96 45.6477C1332.96 46.6061 1332.81 47.4205 1332.49 48.0909C1332.18 48.7614 1331.75 49.2727 1331.21 49.625C1330.67 49.9773 1330.05 50.1534 1329.37 50.1534C1328.87 50.1534 1328.45 50.0701 1328.12 49.9034C1327.79 49.7367 1327.53 49.536 1327.33 49.3011C1327.13 49.0625 1326.98 48.8371 1326.87 48.625H1326.75V50H1324.73ZM1326.74 45.6364C1326.74 46.2008 1326.82 46.6951 1326.98 47.1193C1327.14 47.5436 1327.38 47.875 1327.68 48.1136C1327.99 48.3485 1328.36 48.4659 1328.79 48.4659C1329.25 48.4659 1329.63 48.3447 1329.94 48.1023C1330.24 47.8561 1330.47 47.5208 1330.63 47.0966C1330.79 46.6686 1330.87 46.1818 1330.87 45.6364C1330.87 45.0947 1330.79 44.6136 1330.63 44.1932C1330.48 43.7727 1330.25 43.4432 1329.94 43.2045C1329.63 42.9659 1329.25 42.8466 1328.79 42.8466C1328.35 42.8466 1327.98 42.9621 1327.67 43.1932C1327.37 43.4242 1327.13 43.7481 1326.98 44.1648C1326.82 44.5814 1326.74 45.072 1326.74 45.6364ZM1338.52 50.1705C1337.67 50.1705 1336.93 49.983 1336.3 49.608C1335.68 49.233 1335.19 48.7083 1334.85 48.0341C1334.51 47.3598 1334.34 46.572 1334.34 45.6705C1334.34 44.7689 1334.51 43.9792 1334.85 43.3011C1335.19 42.6231 1335.68 42.0966 1336.3 41.7216C1336.93 41.3466 1337.67 41.1591 1338.52 41.1591C1339.37 41.1591 1340.11 41.3466 1340.74 41.7216C1341.36 42.0966 1341.84 42.6231 1342.18 43.3011C1342.53 43.9792 1342.7 44.7689 1342.7 45.6705C1342.7 46.572 1342.53 47.3598 1342.18 48.0341C1341.84 48.7083 1341.36 49.233 1340.74 49.608C1340.11 49.983 1339.37 50.1705 1338.52 50.1705ZM1338.53 48.5227C1338.99 48.5227 1339.38 48.3958 1339.69 48.142C1340 47.8845 1340.23 47.5398 1340.38 47.108C1340.54 46.6761 1340.62 46.1951 1340.62 45.6648C1340.62 45.1307 1340.54 44.6477 1340.38 44.2159C1340.23 43.7803 1340 43.4337 1339.69 43.1761C1339.38 42.9186 1338.99 42.7898 1338.53 42.7898C1338.06 42.7898 1337.66 42.9186 1337.35 43.1761C1337.04 43.4337 1336.81 43.7803 1336.65 44.2159C1336.5 44.6477 1336.42 45.1307 1336.42 45.6648C1336.42 46.1951 1336.5 46.6761 1336.65 47.108C1336.81 47.5398 1337.04 47.8845 1337.35 48.142C1337.66 48.3958 1338.06 48.5227 1338.53 48.5227ZM1350.01 46.3295V41.2727H1352.07V50H1350.07V48.4489H1349.98C1349.78 48.9375 1349.46 49.3371 1349.01 49.6477C1348.56 49.9583 1348.01 50.1136 1347.36 50.1136C1346.78 50.1136 1346.28 49.9867 1345.84 49.733C1345.4 49.4754 1345.06 49.1023 1344.82 48.6136C1344.57 48.1212 1344.45 47.5265 1344.45 46.8295V41.2727H1346.5V46.5114C1346.5 47.0644 1346.66 47.5038 1346.96 47.8295C1347.26 48.1553 1347.66 48.3182 1348.15 48.3182C1348.46 48.3182 1348.75 48.2443 1349.03 48.0966C1349.32 47.9489 1349.55 47.7292 1349.73 47.4375C1349.92 47.142 1350.01 46.7727 1350.01 46.3295ZM1358.54 41.2727V42.8636H1353.52V41.2727H1358.54ZM1354.76 39.1818H1356.82V47.375C1356.82 47.6515 1356.86 47.8636 1356.94 48.0114C1357.03 48.1553 1357.14 48.2538 1357.28 48.3068C1357.42 48.3598 1357.58 48.3864 1357.75 48.3864C1357.88 48.3864 1358 48.3769 1358.1 48.358C1358.21 48.339 1358.3 48.322 1358.35 48.3068L1358.7 49.9148C1358.59 49.9527 1358.43 49.9943 1358.23 50.0398C1358.03 50.0852 1357.78 50.1117 1357.49 50.1193C1356.97 50.1345 1356.51 50.0568 1356.1 49.8864C1355.68 49.7121 1355.36 49.4432 1355.11 49.0795C1354.88 48.7159 1354.76 48.2614 1354.76 47.7159V39.1818ZM1371.65 38.3636H1373.76V45.9659C1373.76 46.7992 1373.57 47.5322 1373.17 48.1648C1372.78 48.7973 1372.23 49.2917 1371.52 49.6477C1370.82 50 1369.99 50.1761 1369.04 50.1761C1368.09 50.1761 1367.26 50 1366.55 49.6477C1365.84 49.2917 1365.29 48.7973 1364.9 48.1648C1364.51 47.5322 1364.32 46.7992 1364.32 45.9659V38.3636H1366.43V45.7898C1366.43 46.2746 1366.53 46.7064 1366.75 47.0852C1366.96 47.464 1367.26 47.7614 1367.65 47.9773C1368.04 48.1894 1368.51 48.2955 1369.04 48.2955C1369.58 48.2955 1370.04 48.1894 1370.43 47.9773C1370.82 47.7614 1371.12 47.464 1371.34 47.0852C1371.55 46.7064 1371.65 46.2746 1371.65 45.7898V38.3636ZM1382.86 43.5795L1380.99 43.7841C1380.93 43.5947 1380.84 43.4167 1380.71 43.25C1380.58 43.0833 1380.4 42.9489 1380.18 42.8466C1379.96 42.7443 1379.7 42.6932 1379.38 42.6932C1378.95 42.6932 1378.59 42.786 1378.3 42.9716C1378.01 43.1572 1377.87 43.3977 1377.87 43.6932C1377.87 43.947 1377.96 44.1534 1378.15 44.3125C1378.34 44.4716 1378.66 44.6023 1379.11 44.7045L1380.59 45.0227C1381.42 45.2008 1382.03 45.483 1382.43 45.8693C1382.84 46.2557 1383.04 46.7614 1383.05 47.3864C1383.04 47.9356 1382.88 48.4205 1382.57 48.8409C1382.25 49.2576 1381.81 49.5833 1381.25 49.8182C1380.69 50.053 1380.05 50.1705 1379.32 50.1705C1378.25 50.1705 1377.39 49.947 1376.74 49.5C1376.09 49.0492 1375.7 48.4223 1375.58 47.6193L1377.58 47.4261C1377.67 47.8201 1377.87 48.1174 1378.16 48.3182C1378.46 48.5189 1378.84 48.6193 1379.32 48.6193C1379.8 48.6193 1380.2 48.5189 1380.49 48.3182C1380.79 48.1174 1380.94 47.8693 1380.94 47.5739C1380.94 47.3239 1380.84 47.1174 1380.65 46.9545C1380.46 46.7917 1380.17 46.6667 1379.76 46.5795L1378.28 46.267C1377.44 46.0928 1376.82 45.7992 1376.42 45.3864C1376.02 44.9697 1375.82 44.4432 1375.82 43.8068C1375.82 43.2689 1375.96 42.803 1376.26 42.4091C1376.56 42.0114 1376.97 41.7045 1377.5 41.4886C1378.04 41.2689 1378.65 41.1591 1379.35 41.1591C1380.37 41.1591 1381.18 41.3769 1381.76 41.8125C1382.36 42.2481 1382.72 42.8371 1382.86 43.5795Z" fill="black"/>
<defs>
<clipPath id="clip0_42_765">
<rect width="24" height="24" fill="white" transform="translate(77.9805 31)"/>
</clipPath>
<clipPath id="clip1_42_765">
<rect width="24" height="24" fill="white" transform="translate(117.98 31)"/>
</clipPath>
<clipPath id="clip2_42_765">
<rect width="24" height="24" fill="white" transform="translate(157.98 31)"/>
</clipPath>
</defs>
</svg>
