<svg width="36" height="36" viewBox="0 0 36 36" fill="none" xmlns="http://www.w3.org/2000/svg">
<path d="M18 0.5C27.665 0.5 35.5 8.33502 35.5 18C35.5 27.665 27.665 35.5 18 35.5C8.33502 35.5 0.5 27.665 0.5 18C0.5 8.33502 8.33502 0.5 18 0.5Z" fill="#2C2C2C"/>
<path d="M18 0.5C27.665 0.5 35.5 8.33502 35.5 18C35.5 27.665 27.665 35.5 18 35.5C8.33502 35.5 0.5 27.665 0.5 18C0.5 8.33502 8.33502 0.5 18 0.5Z" stroke="#2C2C2C" stroke-linecap="round"/>
<path d="M25.3666 11.8417C24.941 11.4158 24.4356 11.078 23.8794 10.8476C23.3232 10.6171 22.727 10.4985 22.1249 10.4985C21.5229 10.4985 20.9267 10.6171 20.3705 10.8476C19.8143 11.078 19.3089 11.4158 18.8833 11.8417L17.9999 12.725L17.1166 11.8417C16.2569 10.9819 15.0908 10.4989 13.8749 10.4989C12.6591 10.4989 11.493 10.9819 10.6333 11.8417C9.77353 12.7014 9.29053 13.8675 9.29053 15.0833C9.29053 16.2992 9.77353 17.4653 10.6333 18.325L17.9999 25.6917L25.3666 18.325C25.7924 17.8994 26.1302 17.394 26.3607 16.8378C26.5912 16.2816 26.7098 15.6854 26.7098 15.0833C26.7098 14.4813 26.5912 13.8851 26.3607 13.3289C26.1302 12.7727 25.7924 12.2673 25.3666 11.8417Z" stroke="#F5F5F5" stroke-width="2" stroke-linecap="round" stroke-linejoin="round"/>
</svg>
