<svg width="48" height="52" viewBox="0 0 48 52" fill="none" xmlns="http://www.w3.org/2000/svg">
<g clip-path="url(#clip0_11_1155)">
<path d="M24 32.5C27.3137 32.5 30 29.5898 30 26C30 22.4101 27.3137 19.5 24 19.5C20.6863 19.5 18 22.4101 18 26C18 29.5898 20.6863 32.5 24 32.5Z" stroke="#1E1E1E" stroke-width="2.5" stroke-linecap="round" stroke-linejoin="round"/>
<path d="M38.8 32.5C38.5338 33.1535 38.4544 33.8784 38.572 34.5813C38.6896 35.2841 38.9989 35.9327 39.46 36.4433L39.58 36.5733C39.9519 36.9758 40.2469 37.4537 40.4482 37.9798C40.6495 38.5058 40.7531 39.0697 40.7531 39.6392C40.7531 40.2086 40.6495 40.7725 40.4482 41.2986C40.2469 41.8246 39.9519 42.3025 39.58 42.705C39.2085 43.1079 38.7674 43.4275 38.2818 43.6456C37.7962 43.8637 37.2757 43.9759 36.75 43.9759C36.2243 43.9759 35.7038 43.8637 35.2182 43.6456C34.7326 43.4275 34.2915 43.1079 33.92 42.705L33.8 42.575C33.3286 42.0755 32.73 41.7404 32.0812 41.613C31.4324 41.4855 30.7632 41.5716 30.16 41.86C29.5685 42.1347 29.064 42.5907 28.7086 43.172C28.3533 43.7533 28.1626 44.4345 28.16 45.1317V45.5C28.16 46.6493 27.7386 47.7515 26.9884 48.5641C26.2383 49.3768 25.2209 49.8333 24.16 49.8333C23.0991 49.8333 22.0817 49.3768 21.3316 48.5641C20.5814 47.7515 20.16 46.6493 20.16 45.5V45.305C20.1445 44.5878 19.9302 43.8923 19.545 43.3089C19.1598 42.7254 18.6215 42.2809 18 42.0333C17.3968 41.7449 16.7276 41.6589 16.0788 41.7863C15.43 41.9138 14.8314 42.2488 14.36 42.7483L14.24 42.8783C13.8685 43.2812 13.4274 43.6009 12.9418 43.8189C12.4562 44.037 11.9357 44.1492 11.41 44.1492C10.8843 44.1492 10.3638 44.037 9.87824 43.8189C9.39265 43.6009 8.95149 43.2812 8.58 42.8783C8.20809 42.4759 7.91306 41.998 7.71176 41.4719C7.51046 40.9458 7.40685 40.382 7.40685 39.8125C7.40685 39.243 7.51046 38.6791 7.71176 38.1531C7.91306 37.627 8.20809 37.1491 8.58 36.7467L8.7 36.6167C9.16107 36.106 9.47037 35.4575 9.58801 34.7546C9.70565 34.0518 9.62623 33.3268 9.36 32.6733C9.10647 32.0325 8.68551 31.486 8.14893 31.101C7.61235 30.716 6.98357 30.5094 6.34 30.5067H6C4.93913 30.5067 3.92172 30.0501 3.17157 29.2375C2.42143 28.4248 2 27.3226 2 26.1733C2 25.0241 2.42143 23.9219 3.17157 23.1092C3.92172 22.2965 4.93913 21.84 6 21.84H6.18C6.84199 21.8232 7.48401 21.5911 8.0226 21.1738C8.56119 20.7565 8.97143 20.1733 9.2 19.5C9.46623 18.8465 9.54565 18.1216 9.42801 17.4187C9.31037 16.7159 9.00107 16.0673 8.54 15.5567L8.42 15.4267C8.04809 15.0242 7.75306 14.5463 7.55176 14.0202C7.35046 13.4942 7.24685 12.9303 7.24685 12.3608C7.24685 11.7914 7.35046 11.2275 7.55176 10.7014C7.75306 10.1754 8.04809 9.69745 8.42 9.295C8.79149 8.8921 9.23265 8.57248 9.71824 8.35441C10.2038 8.13633 10.7243 8.02409 11.25 8.02409C11.7757 8.02409 12.2962 8.13633 12.7818 8.35441C13.2674 8.57248 13.7085 8.8921 14.08 9.295L14.2 9.425C14.6714 9.92449 15.27 10.2596 15.9188 10.387C16.5676 10.5144 17.2368 10.4284 17.84 10.14H18C18.5915 9.86534 19.096 9.4093 19.4514 8.82801C19.8067 8.24671 19.9974 7.56554 20 6.86833V6.5C20 5.35073 20.4214 4.24853 21.1716 3.43587C21.9217 2.62321 22.9391 2.16666 24 2.16666C25.0609 2.16666 26.0783 2.62321 26.8284 3.43587C27.5786 4.24853 28 5.35073 28 6.5V6.695C28.0026 7.3922 28.1933 8.07338 28.5486 8.65467C28.904 9.23597 29.4085 9.69201 30 9.96666C30.6032 10.2551 31.2724 10.3411 31.9212 10.2137C32.57 10.0862 33.1686 9.75116 33.64 9.25166L33.76 9.12166C34.1315 8.71877 34.5726 8.39914 35.0582 8.18107C35.5438 7.963 36.0643 7.85076 36.59 7.85076C37.1157 7.85076 37.6362 7.963 38.1218 8.18107C38.6074 8.39914 39.0485 8.71877 39.42 9.12166C39.7919 9.52411 40.0869 10.002 40.2882 10.5281C40.4895 11.0541 40.5931 11.618 40.5931 12.1875C40.5931 12.757 40.4895 13.3208 40.2882 13.8469C40.0869 14.373 39.7919 14.8509 39.42 15.2533L39.3 15.3833C38.8389 15.894 38.5296 16.5425 38.412 17.2454C38.2944 17.9482 38.3738 18.6732 38.64 19.3267V19.5C38.8935 20.1408 39.3145 20.6874 39.8511 21.0723C40.3877 21.4573 41.0164 21.6639 41.66 21.6667H42C43.0609 21.6667 44.0783 22.1232 44.8284 22.9359C45.5786 23.7485 46 24.8507 46 26C46 27.1493 45.5786 28.2515 44.8284 29.0641C44.0783 29.8768 43.0609 30.3333 42 30.3333H41.82C41.1764 30.3361 40.5477 30.5427 40.0111 30.9277C39.4745 31.3126 39.0535 31.8592 38.8 32.5Z" stroke="#1E1E1E" stroke-width="2.5" stroke-linecap="round" stroke-linejoin="round"/>
</g>
<defs>
<clipPath id="clip0_11_1155">
<rect width="48" height="52" fill="white"/>
</clipPath>
</defs>
</svg>
