<svg width="56" height="52" viewBox="0 0 56 52" fill="none" xmlns="http://www.w3.org/2000/svg">
<path d="M2.3335 2.16666H11.6668L17.9202 31.1783C18.1335 32.1759 18.7179 33.0719 19.5711 33.7096C20.4243 34.3474 21.4918 34.6862 22.5868 34.6667H45.2668C46.3619 34.6862 47.4294 34.3474 48.2826 33.7096C49.1357 33.0719 49.7201 32.1759 49.9335 31.1783L53.6668 13H14.0002M23.3335 45.5C23.3335 46.6966 22.2888 47.6667 21.0002 47.6667C19.7115 47.6667 18.6668 46.6966 18.6668 45.5C18.6668 44.3034 19.7115 43.3333 21.0002 43.3333C22.2888 43.3333 23.3335 44.3034 23.3335 45.5ZM49.0002 45.5C49.0002 46.6966 47.9555 47.6667 46.6668 47.6667C45.3782 47.6667 44.3335 46.6966 44.3335 45.5C44.3335 44.3034 45.3782 43.3333 46.6668 43.3333C47.9555 43.3333 49.0002 44.3034 49.0002 45.5Z" stroke="#1E1E1E" stroke-width="3.5" stroke-linecap="round" stroke-linejoin="round"/>
</svg>
